%TF.GenerationSoftware,KiCad,Pcbnew,(6.0.7)*%
%TF.CreationDate,2023-01-05T15:45:52-03:00*%
%TF.ProjectId,EMAC2.0_PCB,454d4143-322e-4305-9f50-43422e6b6963,rev?*%
%TF.SameCoordinates,Original*%
%TF.FileFunction,Soldermask,Top*%
%TF.FilePolarity,Negative*%
%FSLAX46Y46*%
G04 Gerber Fmt 4.6, Leading zero omitted, Abs format (unit mm)*
G04 Created by KiCad (PCBNEW (6.0.7)) date 2023-01-05 15:45:52*
%MOMM*%
%LPD*%
G01*
G04 APERTURE LIST*
G04 Aperture macros list*
%AMRoundRect*
0 Rectangle with rounded corners*
0 $1 Rounding radius*
0 $2 $3 $4 $5 $6 $7 $8 $9 X,Y pos of 4 corners*
0 Add a 4 corners polygon primitive as box body*
4,1,4,$2,$3,$4,$5,$6,$7,$8,$9,$2,$3,0*
0 Add four circle primitives for the rounded corners*
1,1,$1+$1,$2,$3*
1,1,$1+$1,$4,$5*
1,1,$1+$1,$6,$7*
1,1,$1+$1,$8,$9*
0 Add four rect primitives between the rounded corners*
20,1,$1+$1,$2,$3,$4,$5,0*
20,1,$1+$1,$4,$5,$6,$7,0*
20,1,$1+$1,$6,$7,$8,$9,0*
20,1,$1+$1,$8,$9,$2,$3,0*%
G04 Aperture macros list end*
%ADD10R,1.600000X1.600000*%
%ADD11C,1.600000*%
%ADD12C,4.000000*%
%ADD13O,1.600000X1.600000*%
%ADD14RoundRect,0.250002X-1.499998X1.499998X-1.499998X-1.499998X1.499998X-1.499998X1.499998X1.499998X0*%
%ADD15C,3.500000*%
%ADD16R,1.800000X1.800000*%
%ADD17C,1.800000*%
%ADD18R,3.200000X3.200000*%
%ADD19O,3.200000X3.200000*%
%ADD20RoundRect,0.249999X-0.790001X-1.550001X0.790001X-1.550001X0.790001X1.550001X-0.790001X1.550001X0*%
%ADD21O,2.080000X3.600000*%
%ADD22RoundRect,0.249999X0.790001X1.550001X-0.790001X1.550001X-0.790001X-1.550001X0.790001X-1.550001X0*%
%ADD23R,1.905000X2.000000*%
%ADD24O,1.905000X2.000000*%
%ADD25C,3.000000*%
%ADD26R,1.500000X1.500000*%
%ADD27C,1.500000*%
%ADD28R,1.700000X1.700000*%
%ADD29O,1.700000X1.700000*%
%ADD30R,1.800000X0.300000*%
%ADD31R,0.900000X1.350000*%
%ADD32R,1.560000X2.610000*%
%ADD33R,1.600000X0.700000*%
%ADD34R,1.400000X1.600000*%
%ADD35R,1.400000X1.200000*%
%ADD36R,2.200000X1.200000*%
%ADD37R,1.700000X3.500000*%
%ADD38O,0.100000X0.100000*%
%ADD39R,3.500000X1.700000*%
%ADD40R,0.100000X0.100000*%
%ADD41O,1.000000X1.000000*%
G04 APERTURE END LIST*
D10*
%TO.C,1uF1*%
X74000000Y-117000000D03*
D11*
X71500000Y-117000000D03*
%TD*%
D10*
%TO.C,1uF2*%
X90000000Y-117000000D03*
D11*
X87500000Y-117000000D03*
%TD*%
D10*
%TO.C,1uF3*%
X105000000Y-117000000D03*
D11*
X102500000Y-117000000D03*
%TD*%
D10*
%TO.C,1uF4*%
X121000000Y-117000000D03*
D11*
X118500000Y-117000000D03*
%TD*%
D10*
%TO.C,1uF5*%
X134500000Y-116500000D03*
D11*
X137000000Y-116500000D03*
%TD*%
D10*
%TO.C,1uF6*%
X149860000Y-116840000D03*
D11*
X152360000Y-116840000D03*
%TD*%
D10*
%TO.C,1uF7*%
X167000000Y-117000000D03*
D11*
X164500000Y-117000000D03*
%TD*%
D10*
%TO.C,1uF8*%
X182000000Y-117000000D03*
D11*
X184500000Y-117000000D03*
%TD*%
D10*
%TO.C,1uF9*%
X197000000Y-117000000D03*
D11*
X199500000Y-117000000D03*
%TD*%
D10*
%TO.C,470uF1*%
X104672651Y-92640000D03*
D11*
X104672651Y-87640000D03*
%TD*%
D10*
%TO.C,470uF2*%
X66746000Y-106250000D03*
D11*
X71746000Y-106250000D03*
%TD*%
D10*
%TO.C,470uF4*%
X75560000Y-106210000D03*
D11*
X80560000Y-106210000D03*
%TD*%
D10*
%TO.C,470uF3*%
X87000000Y-74500000D03*
D11*
X82000000Y-74500000D03*
%TD*%
D12*
%TO.C,DB9_Female1*%
X160040000Y-43950000D03*
X185040000Y-43950000D03*
D10*
X167000000Y-44250000D03*
D11*
X169770000Y-44250000D03*
X172540000Y-44250000D03*
X175310000Y-44250000D03*
X178080000Y-44250000D03*
X168385000Y-41410000D03*
X171155000Y-41410000D03*
X173925000Y-41410000D03*
X176695000Y-41410000D03*
%TD*%
%TO.C,10k-Ohm4*%
X96880000Y-102100000D03*
D13*
X86720000Y-102100000D03*
%TD*%
D11*
%TO.C,10k-Ohm5*%
X89746000Y-57250000D03*
D13*
X89746000Y-67410000D03*
%TD*%
D11*
%TO.C,10k-Ohm6*%
X94246000Y-57250000D03*
D13*
X94246000Y-67410000D03*
%TD*%
D14*
%TO.C,SW1*%
X57500000Y-80500000D03*
D15*
X57500000Y-87500000D03*
%TD*%
D11*
%TO.C,330-Ohm1*%
X78000000Y-86000000D03*
D13*
X67840000Y-86000000D03*
%TD*%
D16*
%TO.C,D2*%
X57460000Y-104500000D03*
D17*
X60000000Y-104500000D03*
%TD*%
D16*
%TO.C,D3*%
X57500000Y-115500000D03*
D17*
X60040000Y-115500000D03*
%TD*%
D16*
%TO.C,D4*%
X57460000Y-99000000D03*
D17*
X60000000Y-99000000D03*
%TD*%
D11*
%TO.C,10k-Ohm8*%
X63340000Y-100650000D03*
D13*
X63340000Y-110810000D03*
%TD*%
D11*
%TO.C,10k-Ohm1*%
X63590000Y-123180000D03*
D13*
X63590000Y-113020000D03*
%TD*%
D11*
%TO.C,10k-Ohm3*%
X81500000Y-84420000D03*
D13*
X81500000Y-94580000D03*
%TD*%
D18*
%TO.C,1N5402-2*%
X85746000Y-51000000D03*
D19*
X70506000Y-51000000D03*
%TD*%
D20*
%TO.C,CH0-A1*%
X64085800Y-127148100D03*
D21*
X69165800Y-127148100D03*
X74245800Y-127148100D03*
%TD*%
D20*
%TO.C,CH1-A1*%
X79518000Y-127148100D03*
D21*
X84598000Y-127148100D03*
X89678000Y-127148100D03*
%TD*%
D20*
%TO.C,CH2-A1*%
X94920000Y-127148100D03*
D21*
X100000000Y-127148100D03*
X105080000Y-127148100D03*
%TD*%
D20*
%TO.C,CH3-A1*%
X110379000Y-127159000D03*
D21*
X115459000Y-127159000D03*
X120539000Y-127159000D03*
%TD*%
D20*
%TO.C,CH4-A1*%
X125746000Y-127159000D03*
D21*
X130826000Y-127159000D03*
X135906000Y-127159000D03*
%TD*%
D20*
%TO.C,CH5-A1*%
X141113000Y-127146000D03*
D21*
X146193000Y-127146000D03*
X151273000Y-127146000D03*
%TD*%
D20*
%TO.C,CH6-A1*%
X156480000Y-127159000D03*
D21*
X161560000Y-127159000D03*
X166640000Y-127159000D03*
%TD*%
D20*
%TO.C,CH7-H1*%
X171847000Y-127159000D03*
D21*
X176927000Y-127159000D03*
X182007000Y-127159000D03*
%TD*%
D20*
%TO.C,CH8-D1*%
X187214000Y-127159000D03*
D21*
X192294000Y-127159000D03*
X197374000Y-127159000D03*
%TD*%
D22*
%TO.C,PWM1*%
X115080000Y-39875200D03*
D21*
X110000000Y-39875200D03*
X104920000Y-39875200D03*
%TD*%
D23*
%TO.C,LM7805*%
X67000000Y-98000000D03*
D24*
X69540000Y-98000000D03*
X72080000Y-98000000D03*
%TD*%
D23*
%TO.C,IRF9540N1*%
X87000000Y-98000000D03*
D24*
X89540000Y-98000000D03*
X92080000Y-98000000D03*
%TD*%
D23*
%TO.C,IRF9540N2*%
X100460000Y-67000000D03*
D24*
X103000000Y-67000000D03*
X105540000Y-67000000D03*
%TD*%
D22*
%TO.C,BATTERY1*%
X77507500Y-39902500D03*
D21*
X72427500Y-39902500D03*
%TD*%
D22*
%TO.C,UART1*%
X99470000Y-39890000D03*
D21*
X94390000Y-39890000D03*
X89310000Y-39890000D03*
X84230000Y-39890000D03*
%TD*%
D25*
%TO.C,Fuse1*%
X67000000Y-74000000D03*
X67000000Y-79000000D03*
X67000000Y-63000000D03*
X67000000Y-58000000D03*
%TD*%
D10*
%TO.C,1uF10*%
X190794888Y-40000000D03*
D11*
X193294888Y-40000000D03*
%TD*%
D10*
%TO.C,1uF13*%
X204544888Y-40750000D03*
D11*
X207044888Y-40750000D03*
%TD*%
D10*
%TO.C,1uF11*%
X206000000Y-45000000D03*
D11*
X206000000Y-47500000D03*
%TD*%
D10*
%TO.C,1uF12*%
X191000000Y-46000000D03*
D11*
X193500000Y-46000000D03*
%TD*%
D10*
%TO.C,1uF14*%
X164105113Y-56400000D03*
D11*
X161605113Y-56400000D03*
%TD*%
D26*
%TO.C,BC547*%
X97500000Y-72500000D03*
D27*
X94960000Y-72500000D03*
X92420000Y-72500000D03*
%TD*%
D28*
%TO.C,GPS1*%
X154000000Y-48000000D03*
D29*
X154000000Y-50540000D03*
X154000000Y-53080000D03*
X154000000Y-55620000D03*
%TD*%
D26*
%TO.C,BC547-2*%
X82500000Y-99000000D03*
D27*
X79960000Y-99000000D03*
X77420000Y-99000000D03*
%TD*%
D23*
%TO.C,LM317*%
X78500000Y-67000000D03*
D24*
X81040000Y-67000000D03*
X83580000Y-67000000D03*
%TD*%
D26*
%TO.C,L78L05-2*%
X112900000Y-96500000D03*
D27*
X110360000Y-96500000D03*
X107820000Y-96500000D03*
%TD*%
D18*
%TO.C,1N5402*%
X58000000Y-59500000D03*
D19*
X58000000Y-44260000D03*
%TD*%
D10*
%TO.C,C29*%
X110597349Y-53000000D03*
D11*
X115597349Y-53000000D03*
%TD*%
D10*
%TO.C,0.1u1*%
X121140000Y-97325113D03*
D11*
X121140000Y-94825113D03*
%TD*%
%TO.C,10k-Ohm2*%
X138000000Y-96630000D03*
D13*
X148160000Y-96630000D03*
%TD*%
D26*
%TO.C,2N3906*%
X177460000Y-108360000D03*
D27*
X180000000Y-108360000D03*
X182540000Y-108360000D03*
%TD*%
D28*
%TO.C,TTL-Modem1*%
X155850000Y-109460000D03*
D29*
X158390000Y-109460000D03*
X160930000Y-109460000D03*
X163470000Y-109460000D03*
%TD*%
D26*
%TO.C,L78L5*%
X112840000Y-101240000D03*
D27*
X110300000Y-101240000D03*
X107760000Y-101240000D03*
%TD*%
D26*
%TO.C,2N3906-2*%
X186460000Y-108500000D03*
D27*
X189000000Y-108500000D03*
X191540000Y-108500000D03*
%TD*%
D22*
%TO.C,SOLAR_PANEL1*%
X66947500Y-39922500D03*
D21*
X61867500Y-39922500D03*
%TD*%
D11*
%TO.C,15k-Ohm1*%
X87000000Y-57000000D03*
D13*
X76840000Y-57000000D03*
%TD*%
D30*
%TO.C,G30*%
X116000000Y-69750000D03*
X120000000Y-69750000D03*
X116000000Y-70250000D03*
X120000000Y-70250000D03*
X116000000Y-70750000D03*
X120000000Y-70750000D03*
X116000000Y-71250000D03*
X120000000Y-71250000D03*
X116000000Y-71750000D03*
X120000000Y-71750000D03*
X116000000Y-72250000D03*
X120000000Y-72250000D03*
X116000000Y-72750000D03*
X120000000Y-72750000D03*
X116000000Y-73250000D03*
X120000000Y-73250000D03*
X116000000Y-73750000D03*
X120000000Y-73750000D03*
X116000000Y-74250000D03*
X120000000Y-74250000D03*
X116000000Y-74750000D03*
X120000000Y-74750000D03*
X116000000Y-75250000D03*
X120000000Y-75250000D03*
X116000000Y-75750000D03*
X120000000Y-75750000D03*
X116000000Y-76250000D03*
X120000000Y-76250000D03*
X116000000Y-76750000D03*
X120000000Y-76750000D03*
X116000000Y-77250000D03*
X120000000Y-77250000D03*
X116000000Y-77750000D03*
X120000000Y-77750000D03*
X116000000Y-78250000D03*
X120000000Y-78250000D03*
X116000000Y-78750000D03*
X120000000Y-78750000D03*
X116000000Y-79250000D03*
X120000000Y-79250000D03*
X116000000Y-79750000D03*
X120000000Y-79750000D03*
X116000000Y-80250000D03*
X120000000Y-80250000D03*
X116000000Y-80750000D03*
X120000000Y-80750000D03*
X116000000Y-81250000D03*
X120000000Y-81250000D03*
X116000000Y-81750000D03*
X120000000Y-81750000D03*
X116000000Y-82250000D03*
X120000000Y-82250000D03*
X116000000Y-82750000D03*
X120000000Y-82750000D03*
X116000000Y-83250000D03*
X120000000Y-83250000D03*
X116000000Y-83750000D03*
X120000000Y-83750000D03*
X116000000Y-84250000D03*
X120000000Y-84250000D03*
X116000000Y-84750000D03*
X120000000Y-84750000D03*
X116000000Y-85250000D03*
X120000000Y-85250000D03*
X116000000Y-85750000D03*
X120000000Y-85750000D03*
X116000000Y-86250000D03*
X120000000Y-86250000D03*
X116000000Y-86750000D03*
X120000000Y-86750000D03*
%TD*%
D11*
%TO.C,10k-Ohm7*%
X105100000Y-106000000D03*
D13*
X94940000Y-106000000D03*
%TD*%
D11*
%TO.C,2.2k-Ohm1*%
X186850000Y-60320000D03*
D13*
X186850000Y-70480000D03*
%TD*%
D11*
%TO.C,100k-Ohm1*%
X125710000Y-96630000D03*
D13*
X135870000Y-96630000D03*
%TD*%
D11*
%TO.C,22k-Ohm2*%
X194000000Y-112000000D03*
D13*
X204160000Y-112000000D03*
%TD*%
D16*
%TO.C,D6*%
X57500000Y-110000000D03*
D17*
X60040000Y-110000000D03*
%TD*%
D11*
%TO.C,1k-Ohm1*%
X88000000Y-79420000D03*
D13*
X88000000Y-89580000D03*
%TD*%
D11*
%TO.C,3.3k-Ohm1*%
X183550000Y-70500000D03*
D13*
X183550000Y-60340000D03*
%TD*%
D28*
%TO.C,JSPI2*%
X124325000Y-101050000D03*
D29*
X126865000Y-101050000D03*
X129405000Y-101050000D03*
X131945000Y-101050000D03*
X134485000Y-101050000D03*
X137025000Y-101050000D03*
X139565000Y-101050000D03*
X142105000Y-101050000D03*
%TD*%
D28*
%TO.C,JCapa2*%
X60130000Y-122000000D03*
D29*
X57590000Y-122000000D03*
%TD*%
D26*
%TO.C,LM336Z5*%
X110270000Y-110130000D03*
D27*
X110270000Y-107590000D03*
X110270000Y-105050000D03*
%TD*%
D11*
%TO.C,200-Ohm1*%
X78500000Y-70000000D03*
D13*
X78500000Y-80160000D03*
%TD*%
D11*
%TO.C,470-Ohm1*%
X74500000Y-70080000D03*
D13*
X74500000Y-80240000D03*
%TD*%
D11*
%TO.C,56-Ohm1*%
X119500000Y-65250000D03*
D13*
X119500000Y-55090000D03*
%TD*%
D28*
%TO.C,CH7A-Jumper-CHD1*%
X168110000Y-109490000D03*
D29*
X170650000Y-109490000D03*
X173190000Y-109490000D03*
%TD*%
D11*
%TO.C,220nF3*%
X140800000Y-58300000D03*
X135800000Y-58300000D03*
%TD*%
D31*
%TO.C,SIM-KA-179*%
X135865000Y-54677500D03*
X133325000Y-54677500D03*
X130785000Y-54677500D03*
D32*
X122660000Y-51802500D03*
X139340000Y-51802500D03*
X122660000Y-39172500D03*
X139340000Y-39172500D03*
D31*
X137135000Y-54677500D03*
X134595000Y-54677500D03*
X132055000Y-54677500D03*
%TD*%
D10*
%TO.C,C27*%
X104250000Y-71380000D03*
D11*
X104250000Y-76380000D03*
%TD*%
%TO.C,220nF1*%
X205000000Y-124000000D03*
X205000000Y-119000000D03*
%TD*%
%TO.C,220nF2*%
X199000000Y-108000000D03*
X204000000Y-108000000D03*
%TD*%
D33*
%TO.C,Micro_SD_Card1*%
X190800000Y-61750000D03*
X190800000Y-62850000D03*
X190800000Y-63950000D03*
X190800000Y-65050000D03*
X190800000Y-66150000D03*
X190800000Y-67250000D03*
X190800000Y-68350000D03*
X190800000Y-69450000D03*
D34*
X191400000Y-57150000D03*
D33*
X190800000Y-70550000D03*
D35*
X191400000Y-71750000D03*
D36*
X200900000Y-71750000D03*
X201000000Y-56250000D03*
%TD*%
D29*
%TO.C,Raspberry_Pi_Pico1*%
X206630000Y-83610000D03*
D37*
X206630000Y-82710000D03*
X204090000Y-82710000D03*
D29*
X204090000Y-83610000D03*
D28*
X201550000Y-83610000D03*
D37*
X201550000Y-82710000D03*
X199010000Y-82710000D03*
D29*
X199010000Y-83610000D03*
X196470000Y-83610000D03*
D37*
X196470000Y-82710000D03*
D29*
X193930000Y-83610000D03*
D37*
X193930000Y-82710000D03*
X191390000Y-82710000D03*
D29*
X191390000Y-83610000D03*
D28*
X188850000Y-83610000D03*
D37*
X188850000Y-82710000D03*
D29*
X186310000Y-83610000D03*
D37*
X186310000Y-82710000D03*
D29*
X183770000Y-83610000D03*
D37*
X183770000Y-82710000D03*
X181230000Y-82710000D03*
D29*
X181230000Y-83610000D03*
X178690000Y-83610000D03*
D37*
X178690000Y-82710000D03*
X176150000Y-82710000D03*
D28*
X176150000Y-83610000D03*
D29*
X173610000Y-83610000D03*
D37*
X173610000Y-82710000D03*
D29*
X171070000Y-83610000D03*
D37*
X171070000Y-82710000D03*
X168530000Y-82710000D03*
D29*
X168530000Y-83610000D03*
D37*
X165990000Y-82710000D03*
D29*
X165990000Y-83610000D03*
D28*
X163450000Y-83610000D03*
D37*
X163450000Y-82710000D03*
X160910000Y-82710000D03*
D29*
X160910000Y-83610000D03*
X158370000Y-83610000D03*
D37*
X158370000Y-82710000D03*
D29*
X158370000Y-101390000D03*
D37*
X158370000Y-102290000D03*
D29*
X160910000Y-101390000D03*
D37*
X160910000Y-102290000D03*
D28*
X163450000Y-101390000D03*
D37*
X163450000Y-102290000D03*
D29*
X165990000Y-101390000D03*
D37*
X165990000Y-102290000D03*
D29*
X168530000Y-101390000D03*
D37*
X168530000Y-102290000D03*
D29*
X171070000Y-101390000D03*
D37*
X171070000Y-102290000D03*
D29*
X173610000Y-101390000D03*
D37*
X173610000Y-102290000D03*
X176150000Y-102290000D03*
D28*
X176150000Y-101390000D03*
D29*
X178690000Y-101390000D03*
D37*
X178690000Y-102290000D03*
D29*
X181230000Y-101390000D03*
D37*
X181230000Y-102290000D03*
X183770000Y-102290000D03*
D29*
X183770000Y-101390000D03*
D37*
X186310000Y-102290000D03*
D29*
X186310000Y-101390000D03*
D37*
X188850000Y-102290000D03*
D28*
X188850000Y-101390000D03*
D37*
X191390000Y-102290000D03*
D29*
X191390000Y-101390000D03*
X193930000Y-101390000D03*
D37*
X193930000Y-102290000D03*
D29*
X196470000Y-101390000D03*
D37*
X196470000Y-102290000D03*
X199010000Y-102290000D03*
D29*
X199010000Y-101390000D03*
D37*
X201550000Y-102290000D03*
D28*
X201550000Y-101390000D03*
D37*
X204090000Y-102290000D03*
D29*
X204090000Y-101390000D03*
X206630000Y-101390000D03*
D37*
X206630000Y-102290000D03*
D38*
X158600000Y-89960000D03*
D39*
X157700000Y-89960000D03*
X157700000Y-92500000D03*
D40*
X158600000Y-92500000D03*
D41*
X158600000Y-95040000D03*
D39*
X157700000Y-95040000D03*
%TD*%
D10*
%TO.C,MCP3208*%
X124340000Y-112110000D03*
D13*
X126880000Y-112110000D03*
X129420000Y-112110000D03*
X131960000Y-112110000D03*
X134500000Y-112110000D03*
X137040000Y-112110000D03*
X139580000Y-112110000D03*
X142120000Y-112110000D03*
X142120000Y-104490000D03*
X139580000Y-104490000D03*
X137040000Y-104490000D03*
X134500000Y-104490000D03*
X131960000Y-104490000D03*
X129420000Y-104490000D03*
X126880000Y-104490000D03*
X124340000Y-104490000D03*
%TD*%
D16*
%TO.C,D7*%
X57460000Y-93500000D03*
D17*
X60000000Y-93500000D03*
%TD*%
D10*
%TO.C,C28*%
X110597349Y-62000000D03*
D11*
X115597349Y-62000000D03*
%TD*%
%TO.C,22k-Ohm1*%
X191340000Y-121500000D03*
D13*
X201500000Y-121500000D03*
%TD*%
D11*
%TO.C,100-Ohm1*%
X132700000Y-59300000D03*
D13*
X122540000Y-59300000D03*
%TD*%
M02*
