M48
; DRILL file {KiCad (6.0.7)} date Thu Jan  5 15:51:37 2023
; FORMAT={-:-/ absolute / metric / decimal}
; #@! TF.CreationDate,2023-01-05T15:51:37-03:00
; #@! TF.GenerationSoftware,Kicad,Pcbnew,(6.0.7)
; #@! TF.FileFunction,MixedPlating,1,2
FMAT,2
METRIC
; #@! TA.AperFunction,Plated,PTH,ComponentDrill
T1C0.800
; #@! TA.AperFunction,Plated,PTH,ComponentDrill
T2C0.900
; #@! TA.AperFunction,Plated,PTH,ComponentDrill
T3C1.000
; #@! TA.AperFunction,Plated,PTH,ComponentDrill
T4C1.400
; #@! TA.AperFunction,Plated,PTH,ComponentDrill
T5C1.500
; #@! TA.AperFunction,Plated,PTH,ViaDrill
T6C4.000
%
G90
G05
T1
X57.15Y-111.09
X67.31Y-111.09
X71.5Y-117.0
X74.0Y-117.0
X87.5Y-117.0
X90.0Y-117.0
X102.5Y-117.0
X105.0Y-117.0
X118.5Y-117.0
X121.0Y-117.0
X124.34Y-104.49
X124.34Y-112.11
X126.88Y-104.49
X126.88Y-112.11
X129.42Y-104.49
X129.42Y-112.11
X131.96Y-104.49
X131.96Y-112.11
X134.5Y-104.49
X134.5Y-112.11
X134.5Y-116.5
X137.0Y-116.5
X137.04Y-104.49
X137.04Y-112.11
X139.58Y-104.49
X139.58Y-112.11
X142.12Y-104.49
X142.12Y-112.11
X149.86Y-116.84
X152.36Y-116.84
X164.5Y-117.0
X167.0Y-117.0
X182.0Y-117.0
X184.5Y-117.0
T2
X57.5Y-115.5
X60.04Y-115.5
T3
X57.59Y-122.0
X60.13Y-122.0
X124.325Y-101.05
X126.865Y-101.05
X129.405Y-101.05
X131.945Y-101.05
X134.485Y-101.05
X137.025Y-101.05
X139.565Y-101.05
X142.105Y-101.05
T4
X64.086Y-127.148
X69.166Y-127.148
X74.246Y-127.148
X79.518Y-127.148
X84.598Y-127.148
X89.678Y-127.148
X94.92Y-127.148
X100.0Y-127.148
X105.08Y-127.148
X110.379Y-127.159
X115.459Y-127.159
X120.539Y-127.159
X125.746Y-127.159
X130.826Y-127.159
X135.906Y-127.159
X141.113Y-127.146
X146.193Y-127.146
X151.273Y-127.146
X156.48Y-127.159
X161.56Y-127.159
X166.64Y-127.159
X171.847Y-127.159
X176.927Y-127.159
X182.007Y-127.159
T5
X62.56Y-106.74
X67.56Y-106.74
X78.56Y-106.74
X83.56Y-106.74
T6
X57.0Y-128.0
X206.0Y-128.0
T0
M30
