M48
; DRILL file {KiCad (6.0.7)} date Thu Jan  5 15:46:04 2023
; FORMAT={-:-/ absolute / metric / decimal}
; #@! TF.CreationDate,2023-01-05T15:46:04-03:00
; #@! TF.GenerationSoftware,Kicad,Pcbnew,(6.0.7)
; #@! TF.FileFunction,MixedPlating,1,2
FMAT,2
METRIC
; #@! TA.AperFunction,Plated,PTH,ViaDrill
T1C0.400
; #@! TA.AperFunction,Plated,PTH,ComponentDrill
T2C0.800
; #@! TA.AperFunction,Plated,PTH,ComponentDrill
T3C0.900
; #@! TA.AperFunction,Plated,PTH,ComponentDrill
T4C1.000
; #@! TA.AperFunction,Plated,PTH,ComponentDrill
T5C1.020
; #@! TA.AperFunction,Plated,PTH,ComponentDrill
T6C1.100
; #@! TA.AperFunction,Plated,PTH,ComponentDrill
T7C1.400
; #@! TA.AperFunction,Plated,PTH,ComponentDrill
T8C1.500
; #@! TA.AperFunction,Plated,PTH,ComponentDrill
T9C1.550
; #@! TA.AperFunction,Plated,PTH,ComponentDrill
T10C1.600
; #@! TA.AperFunction,Plated,PTH,ViaDrill
T11C2.400
; #@! TA.AperFunction,Plated,PTH,ComponentDrill
T12C3.200
; #@! TA.AperFunction,Plated,PTH,ViaDrill
T13C4.000
%
G90
G05
T1
X91.13Y-88.14
X98.88Y-89.24
X122.0Y-82.75
X122.06Y-90.52
X125.67Y-90.7
X130.7Y-68.8
X134.3Y-68.9
X146.16Y-85.99
X151.42Y-87.29
X160.91Y-70.91
X166.0Y-69.5
X168.5Y-71.5
X171.0Y-66.0
X173.85Y-66.15
X175.1Y-50.5
X181.3Y-56.7
X183.77Y-75.77
X185.93Y-78.96
X189.5Y-54.0
X192.175Y-52.77
T2
X63.34Y-100.65
X63.34Y-110.81
X63.59Y-113.02
X63.59Y-123.18
X66.746Y-106.25
X67.84Y-86.0
X71.5Y-117.0
X71.746Y-106.25
X74.0Y-117.0
X74.5Y-70.08
X74.5Y-80.24
X75.56Y-106.21
X76.84Y-57.0
X77.42Y-99.0
X78.0Y-86.0
X78.5Y-70.0
X78.5Y-80.16
X79.96Y-99.0
X80.56Y-106.21
X81.5Y-84.42
X81.5Y-94.58
X82.0Y-74.5
X82.5Y-99.0
X86.72Y-102.1
X87.0Y-57.0
X87.0Y-74.5
X87.5Y-117.0
X88.0Y-79.42
X88.0Y-89.58
X89.746Y-57.25
X89.746Y-67.41
X90.0Y-117.0
X92.42Y-72.5
X94.246Y-57.25
X94.246Y-67.41
X94.94Y-106.0
X94.96Y-72.5
X96.88Y-102.1
X97.5Y-72.5
X102.5Y-117.0
X104.25Y-71.38
X104.25Y-76.38
X104.673Y-87.64
X104.673Y-92.64
X105.0Y-117.0
X105.1Y-106.0
X107.76Y-101.24
X107.82Y-96.5
X110.27Y-105.05
X110.27Y-107.59
X110.27Y-110.13
X110.3Y-101.24
X110.36Y-96.5
X110.597Y-53.0
X110.597Y-62.0
X112.84Y-101.24
X112.9Y-96.5
X115.597Y-53.0
X115.597Y-62.0
X118.5Y-117.0
X119.5Y-55.09
X119.5Y-65.25
X121.0Y-117.0
X121.14Y-94.825
X121.14Y-97.325
X122.54Y-59.3
X124.34Y-104.49
X124.34Y-112.11
X125.71Y-96.63
X126.88Y-104.49
X126.88Y-112.11
X129.42Y-104.49
X129.42Y-112.11
X131.96Y-104.49
X131.96Y-112.11
X132.7Y-59.3
X134.5Y-104.49
X134.5Y-112.11
X134.5Y-116.5
X135.8Y-58.3
X135.87Y-96.63
X137.0Y-116.5
X137.04Y-104.49
X137.04Y-112.11
X138.0Y-96.63
X139.58Y-104.49
X139.58Y-112.11
X140.8Y-58.3
X142.12Y-104.49
X142.12Y-112.11
X148.16Y-96.63
X149.86Y-116.84
X152.36Y-116.84
X161.605Y-56.4
X164.105Y-56.4
X164.5Y-117.0
X167.0Y-117.0
X177.46Y-108.36
X180.0Y-108.36
X182.0Y-117.0
X182.54Y-108.36
X183.55Y-60.34
X183.55Y-70.5
X184.5Y-117.0
X186.46Y-108.5
X186.85Y-60.32
X186.85Y-70.48
X189.0Y-108.5
X190.795Y-40.0
X191.0Y-46.0
X191.34Y-121.5
X191.54Y-108.5
X193.295Y-40.0
X193.5Y-46.0
X194.0Y-112.0
X197.0Y-117.0
X199.0Y-108.0
X199.5Y-117.0
X201.5Y-121.5
X204.0Y-108.0
X204.16Y-112.0
X204.545Y-40.75
X205.0Y-119.0
X205.0Y-124.0
X206.0Y-45.0
X206.0Y-47.5
X207.045Y-40.75
T3
X57.46Y-93.5
X57.46Y-99.0
X57.46Y-104.5
X57.5Y-110.0
X57.5Y-115.5
X60.0Y-93.5
X60.0Y-99.0
X60.0Y-104.5
X60.04Y-110.0
X60.04Y-115.5
T4
X57.59Y-122.0
X60.13Y-122.0
X124.325Y-101.05
X126.865Y-101.05
X129.405Y-101.05
X131.945Y-101.05
X134.485Y-101.05
X137.025Y-101.05
X139.565Y-101.05
X142.105Y-101.05
X154.0Y-48.0
X154.0Y-50.54
X154.0Y-53.08
X154.0Y-55.62
X155.85Y-109.46
X158.39Y-109.46
X160.93Y-109.46
X163.47Y-109.46
X167.0Y-44.25
X168.11Y-109.49
X168.385Y-41.41
X169.77Y-44.25
X170.65Y-109.49
X171.155Y-41.41
X172.54Y-44.25
X173.19Y-109.49
X173.925Y-41.41
X175.31Y-44.25
X176.695Y-41.41
X178.08Y-44.25
T5
X158.37Y-83.61
X158.37Y-101.39
X160.91Y-83.61
X160.91Y-101.39
X163.45Y-83.61
X163.45Y-101.39
X165.99Y-83.61
X165.99Y-101.39
X168.53Y-83.61
X168.53Y-101.39
X171.07Y-83.61
X171.07Y-101.39
X173.61Y-83.61
X173.61Y-101.39
X176.15Y-83.61
X176.15Y-101.39
X178.69Y-83.61
X178.69Y-101.39
X181.23Y-83.61
X181.23Y-101.39
X183.77Y-83.61
X183.77Y-101.39
X186.31Y-83.61
X186.31Y-101.39
X188.85Y-83.61
X188.85Y-101.39
X191.39Y-83.61
X191.39Y-101.39
X193.93Y-83.61
X193.93Y-101.39
X196.47Y-83.61
X196.47Y-101.39
X199.01Y-83.61
X199.01Y-101.39
X201.55Y-83.61
X201.55Y-101.39
X204.09Y-83.61
X204.09Y-101.39
X206.63Y-83.61
X206.63Y-101.39
T6
X67.0Y-98.0
X69.54Y-98.0
X72.08Y-98.0
X78.5Y-67.0
X81.04Y-67.0
X83.58Y-67.0
X87.0Y-98.0
X89.54Y-98.0
X92.08Y-98.0
X100.46Y-67.0
X103.0Y-67.0
X105.54Y-67.0
T7
X61.867Y-39.922
X64.086Y-127.148
X66.947Y-39.922
X69.166Y-127.148
X72.427Y-39.902
X74.246Y-127.148
X77.507Y-39.902
X79.518Y-127.148
X84.23Y-39.89
X84.598Y-127.148
X89.31Y-39.89
X89.678Y-127.148
X94.39Y-39.89
X94.92Y-127.148
X99.47Y-39.89
X100.0Y-127.148
X104.92Y-39.875
X105.08Y-127.148
X110.0Y-39.875
X110.379Y-127.159
X115.08Y-39.875
X115.459Y-127.159
X120.539Y-127.159
X125.746Y-127.159
X130.826Y-127.159
X135.906Y-127.159
X141.113Y-127.146
X146.193Y-127.146
X151.273Y-127.146
X156.48Y-127.159
X161.56Y-127.159
X166.64Y-127.159
X171.847Y-127.159
X176.927Y-127.159
X182.007Y-127.159
X187.214Y-127.159
X192.294Y-127.159
X197.374Y-127.159
T8
X67.0Y-58.0
X67.0Y-63.0
X67.0Y-74.0
X67.0Y-79.0
T9
X57.5Y-80.5
X57.5Y-87.5
T10
X58.0Y-44.26
X58.0Y-59.5
X70.506Y-51.0
X85.746Y-51.0
T11
X124.6Y-68.6
X148.5Y-88.4
T12
X160.04Y-43.95
X185.04Y-43.95
T13
X57.0Y-128.0
X199.0Y-39.0
X206.0Y-128.0
T0
M30
